<svg xmlns="http://www.w3.org/2000/svg" viewBox="0 0 64 64" id="chest">
  <rect width="51" height="31" x="6" y="5" fill="#533522"></rect>
  <path fill="#7d5032" d="M9,9H45.3A6.7,6.7,0,0,1,52,15.7V31a0,0,0,0,1,0,0H9a0,0,0,0,1,0,0V9A0,0,0,0,1,9,9Z"></path>
  <path fill="#cb8152" d="M9,22.516V6H55V16.832L59,20V4a2,2,0,0,0-2-2H7A2,2,0,0,0,5,4V30Z"></path>
  <polygon fill="#76d8ff" points="14.111 21.001 18 14 30 14 35 23 33.074 26.467 33.074 31 14.111 31 14.111 21.001"></polygon>
  <polygon fill="#ccf1ff" points="22.488 27 27 27 29 23 27 19 21 19 19.18 22.64 22.488 27"></polygon>
  <polygon fill="#fff" points="30 14 27 19 21 19 18 14 30 14" opacity=".3"></polygon>
  <polygon fill="#fff" points="35 23 29 23 27 27 29.4 31 33.074 31 33.074 26.467 35 23" opacity=".3"></polygon>
  <path fill="#eaebef" d="M29.512,31a9.013,9.013,0,0,1,11.5-5.484L46,31Z"></path>
  <path fill="#ffd55d" d="M5 30a9 9 0 0118 0 9.168 9.168 0 01-.055 1v4H5zM41.476 29.058A10 10 0 1160.168 30v3.114H41.7z"></path>
  <path fill="#fff" d="M51,16a9.937,9.937,0,0,0-5,1.349V19.62A6.381,6.381,0,0,0,52.38,26H61A10,10,0,0,0,51,16Z" opacity=".3"></path>
  <polygon fill="#7d5032" points="6 61 58 61 58 51 51.705 51 41.545 51 32 51 6 51 6 61"></polygon>
  <polygon fill="#895837" points="6 51 58 51 58 41 51.705 41 41.545 41 32 41 6 41 6 51"></polygon>
  <polygon fill="#966240" points="6 41 58 41 58 31 51.705 31 41.545 31 32 31 6 31 6 41"></polygon>
  <rect width="6" height="32" x="2" y="30" fill="#cb8152" rx="1"></rect>
  <rect width="6" height="32" x="56" y="30" fill="#cb8152" rx="1"></rect>
  <path fill="#533522" d="M30,42.235V45a2,2,0,0,0,2,2h0a2,2,0,0,0,2-2V42.235h0a3,3,0,1,0-4,0Z"></path>
  <path fill="#ffc239" d="M52,31V46.5A6.5,6.5,0,0,1,45.5,53h0A6.5,6.5,0,0,1,39,46.5V31a2,2,0,0,1,2-2h0a2,2,0,0,1,2,2V46.5A2.5,2.5,0,0,0,45.5,49h0A2.5,2.5,0,0,0,48,46.5V31a2,2,0,0,1,2-2h0A2,2,0,0,1,52,31Z"></path>
  <path d="M61.551,29.087A10.906,10.906,0,0,0,60,19.7V4a3,3,0,0,0-3-3H7A3,3,0,0,0,4,4V29H3a2,2,0,0,0-2,2V61a2,2,0,0,0,2,2H7a1.993,1.993,0,0,0,1.722-1H55.278A1.993,1.993,0,0,0,57,63h4a2,2,0,0,0,2-2V31A2,2,0,0,0,61.551,29.087ZM7,3H57a1,1,0,0,1,1,1V17.521a11.013,11.013,0,0,0-2-1.307V6a1,1,0,0,0-1-1H9A1,1,0,0,0,8,6V22.019a10.088,10.088,0,0,0-2,2.007V4A1,1,0,0,1,7,3ZM44,32h3v8H44Zm0,10h3v4.5a1.5,1.5,0,0,1-3,0Zm1.5,8A3.5,3.5,0,0,0,49,46.5V31a1,1,0,0,1,2,0V46.5a5.5,5.5,0,0,1-11,0V31a1,1,0,0,1,2,0V46.5A3.5,3.5,0,0,0,45.5,50ZM53,32h2v8H53Zm0,14.5V42h2v8H52.128A7.444,7.444,0,0,0,53,46.5ZM14,22a8.009,8.009,0,0,1,8,8H8.722A1.993,1.993,0,0,0,7,29H6.069A8.008,8.008,0,0,1,14,22Zm26.01,4.255a10.939,10.939,0,0,0,.2,1.863A3,3,0,0,0,38.184,30h-7.1a7.989,7.989,0,0,1,8.924-3.745ZM9,32H38v8H36a4,4,0,0,0-8,0H9ZM21.618,20h4.764l1.5,3-1.5,3H23.159a10.042,10.042,0,0,0-2.721-3.64Zm2.18,8h2.636l1.2,2H24A9.983,9.983,0,0,0,23.8,28Zm6.869,13.49a2,2,0,1,1,2.667,0,1,1,0,0,0-.334.746V45a1,1,0,0,1-2,0V42.235A1,1,0,0,0,30.667,41.49ZM9,42H28.543a3.965,3.965,0,0,0,.457.645V45a3,3,0,0,0,6,0V42.645A3.959,3.959,0,0,0,35.457,42H38v4.5a7.444,7.444,0,0,0,.872,3.5H9ZM29.356,28.983,28.14,26.956,29.618,24H33.3l-.991,1.784A10.006,10.006,0,0,0,29.356,28.983ZM29.618,22,28.14,19.044,29.966,16,33.3,22Zm-3.184-4H21.566l-1.8-3h8.468Zm-8.4-2,1.827,3.045-1.086,2.172a9.942,9.942,0,0,0-3.052-1.057ZM9,52H40.418a7.457,7.457,0,0,0,10.164,0H55v8H9ZM40.154,24.242a9.753,9.753,0,0,0-4.763.112l.483-.869a1,1,0,0,0,0-.971l-5-9A1,1,0,0,0,30,13H18a1,1,0,0,0-.874.514l-3.618,6.511A9.93,9.93,0,0,0,10,20.841V7H54v8.426a10.955,10.955,0,0,0-13.846,8.816ZM3,61V31H7V61ZM55.278,30H52.816a2.982,2.982,0,0,0-5.632,0H43.816a3,3,0,0,0-1.489-1.677A8.992,8.992,0,1,1,59.478,29H57A1.993,1.993,0,0,0,55.278,30ZM57,61V31h4V61Z"></path>
</svg>
