<svg width="40" height="40" viewBox="0 0 40 40" fill="none" xmlns="http://www.w3.org/2000/svg">
<g clip-path="url(#clip0_4_9)">
<rect width="40" height="40" rx="20" fill="#FFBF10"/>
<path d="M19.5341 31.3636V7.72727H21.0483V31.3636H19.5341ZM24.6307 14.8182C24.5199 13.8826 24.0705 13.1562 23.2827 12.6392C22.4948 12.1222 21.5284 11.8636 20.3835 11.8636C19.5464 11.8636 18.8139 11.9991 18.1861 12.2699C17.5644 12.5407 17.0781 12.9131 16.7273 13.3871C16.3826 13.861 16.2102 14.3996 16.2102 15.0028C16.2102 15.5076 16.3303 15.9415 16.5703 16.3047C16.8165 16.6617 17.1304 16.9602 17.5121 17.2003C17.8937 17.4342 18.2938 17.6281 18.7124 17.782C19.1309 17.9297 19.5156 18.0497 19.8665 18.142L21.7869 18.6591C22.2794 18.7884 22.8272 18.9669 23.4304 19.1946C24.0398 19.4223 24.6214 19.7332 25.1754 20.1271C25.7356 20.5149 26.1972 21.0135 26.5604 21.6229C26.9235 22.2322 27.1051 22.9801 27.1051 23.8665C27.1051 24.8883 26.8374 25.8116 26.3018 26.6364C25.7725 27.4612 24.9969 28.1167 23.9751 28.603C22.9595 29.0893 21.7254 29.3324 20.2727 29.3324C18.9186 29.3324 17.746 29.1139 16.755 28.6768C15.7701 28.2398 14.9946 27.6304 14.4283 26.8487C13.8681 26.067 13.5511 25.1591 13.4773 24.125H15.8409C15.9025 24.839 16.1425 25.4299 16.5611 25.8977C16.9858 26.3594 17.5213 26.7041 18.1676 26.9318C18.8201 27.1534 19.5218 27.2642 20.2727 27.2642C21.1468 27.2642 21.9316 27.1226 22.6271 26.8395C23.3227 26.5502 23.8736 26.1501 24.2798 25.6392C24.6861 25.1222 24.8892 24.5189 24.8892 23.8295C24.8892 23.2017 24.7138 22.6908 24.3629 22.2969C24.0121 21.9029 23.5504 21.5829 22.978 21.3366C22.4055 21.0904 21.7869 20.875 21.1222 20.6903L18.7955 20.0256C17.3182 19.6009 16.1487 18.9946 15.2869 18.2067C14.4252 17.4188 13.9943 16.3878 13.9943 15.1136C13.9943 14.0549 14.2805 13.1316 14.853 12.3438C15.4316 11.5497 16.2071 10.9342 17.1797 10.4972C18.1584 10.054 19.2509 9.83239 20.4574 9.83239C21.6761 9.83239 22.7595 10.0509 23.7074 10.4879C24.6553 10.9188 25.4063 11.5097 25.9602 12.2607C26.5204 13.0116 26.8158 13.8641 26.8466 14.8182H24.6307Z" fill="black"/>
<rect x="1.5" y="1.5" width="37" height="37" rx="18.5" stroke="#B27403" stroke-width="3"/>
</g>
<defs>
<clipPath id="clip0_4_9">
<rect width="40" height="40" fill="white"/>
</clipPath>
</defs>
</svg>
