<svg width="22" height="18" viewBox="0 0 22 18" fill="none" xmlns="http://www.w3.org/2000/svg">
<path d="M12.9302 13.0552L13.0965 13.2527C13.596 13.8458 14.5093 13.8458 15.0088 13.2527L16.2158 11.8194C16.5155 11.4635 17.0635 11.4635 17.3632 11.8194L18.5702 13.2527C19.0696 13.8458 19.983 13.8458 20.4825 13.2527L20.6488 13.0552C21.0406 12.5899 21.0406 11.9101 20.6488 11.4448L18.9968 9.4831C18.7617 9.20393 18.7617 8.79607 18.9968 8.5169L20.6488 6.55517C21.0406 6.08989 21.0406 5.41011 20.6488 4.94483L20.4825 4.7473C19.983 4.15419 19.0696 4.15419 18.5702 4.7473L17.3632 6.18063C17.0635 6.5365 16.5155 6.5365 16.2158 6.18063L15.0088 4.7473C14.5093 4.15419 13.596 4.15419 13.0965 4.7473L12.9301 4.94483C12.5383 5.41011 12.5383 6.08989 12.9302 6.55517L14.5821 8.5169C14.8172 8.79607 14.8172 9.20393 14.5821 9.4831L12.9301 11.4448C12.5383 11.9101 12.5383 12.5899 12.9302 13.0552ZM0.75 6.75V11.25C0.75 11.9404 1.30964 12.5 2 12.5H3.10526H4.79832C4.99634 12.5 5.18633 12.5783 5.32683 12.7179L9.11915 16.4843C9.90783 17.2676 11.25 16.709 11.25 15.5974V9V2.40258C11.25 1.29101 9.90783 0.732376 9.11914 1.51568L5.32683 5.28214C5.18633 5.42169 4.99634 5.5 4.79832 5.5H3.10526H2C1.30964 5.5 0.75 6.05964 0.75 6.75ZM6.59617 7.55517L6.79474 7.31937C7.24534 6.78427 8.11842 7.10292 8.11842 7.80247V10.1975C8.11842 10.8971 7.24534 11.2157 6.79474 10.6806L6.59617 10.4448C6.35866 10.1628 6.00875 10 5.64003 10H4.10526C3.69105 10 3.35526 9.66421 3.35526 9.25V8.75C3.35526 8.33579 3.69105 8 4.10526 8H5.64003C6.00875 8 6.35866 7.83721 6.59617 7.55517Z" fill="#FFC300" stroke="black" stroke-width="0.5"/>
<path d="M7.12897 9.64683C6.75862 9.60285 6.4012 9.34209 6.0322 9.26161C5.81786 9.21486 5.6019 9.23259 5.38856 9.19435C5.26638 9.17245 5.20876 9.1501 5.38341 9.16377C5.74212 9.19186 6.08696 9.12578 6.43898 9.05371C6.59987 9.02077 6.16969 9.10255 6.14548 9.10874C5.51929 9.269 4.89684 9.31664 4.25831 9.31664C3.86823 9.31664 4.3568 9.1754 4.5132 9.12403C5.02588 8.95563 5.55719 8.84895 6.0631 8.65626C6.51527 8.48403 6.9782 8.36254 7.43277 8.20378C7.46231 8.19346 7.77349 8.09433 7.59755 8.10594C7.21695 8.13105 6.79663 8.33227 6.43641 8.46976C5.9908 8.63985 5.55389 8.93471 5.09248 8.98951C4.76052 9.02893 4.42695 9.11205 4.09612 9.176C3.93073 9.20797 3.42651 9.20657 3.59407 9.20657C4.22011 9.20657 4.79205 9.16576 5.404 8.98645C6.15284 8.76703 6.82991 8.36588 7.54605 8.05091C7.55798 8.04567 7.81004 7.92723 7.69023 7.89804C7.27273 7.79635 6.69203 8.0386 6.28966 8.13651C5.46466 8.33727 4.65274 8.61993 3.82064 8.76632C3.62392 8.80093 3.44026 8.93799 3.23621 8.98645" stroke="#FFC300" stroke-width="3" stroke-linecap="round"/>
<path d="M8.00417 10.5858C7.93727 10.0506 8.05395 11.0552 7.99402 11.2051C7.95103 11.3125 7.39778 10.6927 7.35445 10.6264C7.19031 10.3754 7.27323 9.95768 7.27323 9.67212" stroke="#FFC300" stroke-width="3" stroke-linecap="round"/>
</svg>
