<svg width="24" height="24" viewBox="0 0 24 24" fill="none" xmlns="http://www.w3.org/2000/svg">
<path d="M13.9722 20.4032V20.7411C13.9722 21.5343 14.7241 22.165 15.5141 21.8798C17.3136 21.23 18.8201 20.1242 20.0307 18.5678C21.5103 16.6654 22.25 14.4729 22.25 12C22.25 9.52705 21.5103 7.33457 20.0307 5.43223C18.8201 3.87581 17.3136 2.76997 15.5141 2.12023C14.7241 1.83497 13.9722 2.46566 13.9722 3.25888V3.59679C13.9722 4.15457 14.3409 4.62239 14.8343 4.81938C16.1336 5.33809 17.2036 6.17868 18.0474 7.34642C19.0341 8.712 19.5278 10.2604 19.5278 12C19.5278 13.7396 19.0341 15.288 18.0474 16.6536C17.2036 17.8213 16.1336 18.6619 14.8343 19.1806C14.3409 19.3776 13.9722 19.8454 13.9722 20.4032ZM1.75 9.6V14.4571C1.75 15.1475 2.30964 15.7071 3 15.7071H6.02196C6.22453 15.7071 6.41849 15.7891 6.5597 15.9343L10.1038 19.5796C10.886 20.3842 12.25 19.8304 12.25 18.7083V5.34884C12.25 4.22671 10.886 3.67293 10.1038 4.4775L6.5597 8.12281C6.41849 8.26805 6.22453 8.35 6.02196 8.35H3C2.30964 8.35 1.75 8.90964 1.75 9.6ZM13.9722 8.99132V15.0087C13.9722 15.4655 14.2129 15.8509 14.5535 16.0394C14.9038 16.2333 15.3503 16.2104 15.6951 15.8678C15.9948 15.5701 16.256 15.2325 16.479 14.856C16.9928 13.9885 17.25 13.0444 17.25 12.0286C17.25 10.9946 16.9933 10.0366 16.4796 9.15939C16.2562 8.77781 15.9943 8.43618 15.6938 8.13542C15.35 7.79148 14.9037 7.76756 14.5534 7.96112C14.2128 8.14925 13.9722 8.53457 13.9722 8.99132ZM7.86264 10.7571L8.24003 10.3689C8.70936 9.88615 9.52778 10.2184 9.52778 10.8917V13.1654C9.52778 13.8387 8.70936 14.171 8.24003 13.6882L7.86264 13.3001C7.62729 13.058 7.30403 12.9214 6.9664 12.9214H5.22222C4.80801 12.9214 4.47222 12.5856 4.47222 12.1714V11.8857C4.47222 11.4715 4.80801 11.1357 5.22222 11.1357H6.9664C7.30403 11.1357 7.62729 10.9991 7.86264 10.7571Z" fill="#FFC400" stroke="black" stroke-width="0.5"/>
<path d="M6.04207 11.6039C5.63953 11.2745 5.37636 12.2025 5.39269 12.4499C5.44871 13.2981 6.97082 12.642 7.38197 12.427C7.43152 12.4011 7.75339 12.1588 7.53288 12.1412C7.15006 12.1106 6.74368 12.2648 6.3759 12.3447C6.00034 12.4263 4.89636 12.7536 5.2555 12.6168C5.6898 12.4513 6.07719 12.2056 6.40791 11.8782C6.44275 11.8438 6.72392 11.5803 6.54739 11.565C6.24332 11.5386 6.09444 11.8032 5.9689 12.0383C5.90298 12.1618 5.8 12.4466 5.62363 12.4613C5.36576 12.4828 5.11232 12.2359 4.92167 12.0978C4.81222 12.0185 4.50243 11.8817 4.48037 11.7273C4.44712 11.4946 5.00286 11.4043 5.1366 11.3844C5.9465 11.2637 6.43644 11.6451 7.08015 12.0657C7.6371 12.4297 8.34519 12.8711 8.70815 13.4468C8.8291 13.6387 8.84823 13.8486 8.99625 14.0321C9.12492 14.1917 9.12538 13.636 9.12658 13.5886C9.13829 13.1259 9.133 12.6611 9.12887 12.1984C9.12576 11.8507 9.03831 11.5152 8.99625 11.174C8.96689 10.9358 8.9718 10.5919 8.87278 10.3691C8.8169 10.2434 8.82657 10.1668 8.92308 10.081C9.16528 9.86575 9.28839 9.59482 9.45812 9.34021" stroke="#FFC300" stroke-width="3" stroke-linecap="round"/>
<path d="M9.91086 15.5138C9.7743 15.4865 9.71245 15.3105 9.5816 15.2668" stroke="#FFC300" stroke-width="3" stroke-linecap="round"/>
</svg>
